<?xml version="1.0" standalone="no"?><svg xmlns="http://www.w3.org/2000/svg" viewBox="0 0 1440 320"><path fill="#f1f1f1" fill-opacity="1" d="M0,32L34.3,69.3C68.6,107,137,181,206,208C274.3,235,343,213,411,170.7C480,128,549,64,617,69.3C685.7,75,754,149,823,176C891.4,203,960,181,1029,154.7C1097.1,128,1166,96,1234,96C1302.9,96,1371,128,1406,144L1440,160L1440,0L1405.7,0C1371.4,0,1303,0,1234,0C1165.7,0,1097,0,1029,0C960,0,891,0,823,0C754.3,0,686,0,617,0C548.6,0,480,0,411,0C342.9,0,274,0,206,0C137.1,0,69,0,34,0L0,0Z"></path></svg>